<?xml version="1.0" encoding="utf-8"?>
<!-- Generator: Adobe Illustrator 27.0.0, SVG Export Plug-In . SVG Version: 6.00 Build 0)  -->
<svg version="1.1" id="Capa_1" xmlns="http://www.w3.org/2000/svg" xmlns:xlink="http://www.w3.org/1999/xlink" x="0px" y="0px"
	 viewBox="0 0 792 612" style="enable-background:new 0 0 792 612;" xml:space="preserve">
<style type="text/css">
	.st0{fill:#020203;}
	.st1{fill:#EF7B20;}
	.st2{fill:#FFFFFF;}
	.st3{fill:#C0AC9B;}
</style>
<path class="st1" d="M311,483.2c-16.3-9.5-29.2-22.4-38.8-38.6c-9.5-16.2-14.3-33.8-14.3-52.9c0-19.1,4.8-36.7,14.3-52.9
	c9.5-16.2,22.4-29.1,38.6-38.6c16.2-9.5,33.9-14.3,53.2-14.3c19.1,0,36.7,4.8,52.9,14.3c16.2,9.5,29.1,22.4,38.6,38.6
	c9.5,16.2,14.3,33.8,14.3,52.9c0,19.1-4.8,36.7-14.3,52.9c-9.5,16.2-22.4,29.1-38.6,38.6c-16.2,9.5-33.8,14.3-52.9,14.3
	C345,497.5,327.3,492.8,311,483.2z M297.3,430.9c6.9,12.1,16.3,21.6,28.2,28.6c11.9,7,24.7,10.6,38.6,10.6
	c13.9,0,26.7-3.5,38.5-10.6c11.8-7,21.1-16.6,28.1-28.6c6.9-12.1,10.4-25.1,10.4-39.2c0-14.1-3.5-27.1-10.4-39.2
	c-6.9-12-16.3-21.6-28.1-28.6c-11.8-7-24.6-10.6-38.5-10.6c-13.9,0-26.8,3.5-38.6,10.6c-11.9,7-21.3,16.6-28.2,28.6
	c-6.9,12.1-10.4,25.1-10.4,39.2C286.9,405.7,290.4,418.8,297.3,430.9z"/>
<path class="st0" d="M478.7,290.4h53.2c11.4,0,21.8,2.8,31.4,8.5c9.5,5.7,17.2,13.3,22.9,22.9c5.7,9.5,8.5,20,8.5,31.4
	c0,14.3-4.4,27-13.3,38.3c-8.9,11.3-20.1,18.7-33.6,22.1l59.3,79.3h-35.6l-63.9-85.3v85.3h-28.9V290.4z M531.9,388.5
	c9.3,0,17.2-3.5,23.9-10.4c6.7-6.9,10-15.2,10-24.9c0-9.6-3.3-17.9-10-24.9c-6.7-6.9-14.6-10.4-23.9-10.4h-24.3v70.6H531.9z"/>
<path class="st0" d="M711.5,290.4v27.5h-69.7v60.2h69.7v27.5h-69.7v59.9h69.7v27.5h-98.6V290.4H711.5z"/>
<path class="st0" d="M187.1,73.7v175h61v27.5h-90V73.7H187.1z"/>
<path class="st0" d="M285.8,73.7v202.5h-28.9V73.7H285.8z"/>
<path class="st0" d="M535.4,73.7l80.4,113.7V73.7h28.9v207.1L544.1,134.7v141.5h-28.9V73.7H535.4z"/>
<path class="st0" d="M118.7,325.4c-5.7,5-8.5,11.1-8.5,18.2c0,6,1.5,10.9,4.6,14.9c3.1,4,6.9,7.2,11.4,9.7c4.5,2.5,11,5.5,19.5,9
	c11.2,4.4,20.3,8.8,27.5,13c7.1,4.2,13.2,10.5,18.2,18.7c5,8.2,7.5,18.9,7.5,32c0,10.2-2.7,19.6-8.1,28.2
	c-5.4,8.6-12.6,15.4-21.7,20.5c-9.1,5.1-19,7.7-29.8,7.7c-10.8,0-20.7-2.7-29.8-8c-9.1-5.3-16.3-12.5-21.7-21.6
	c-5.4-9.1-8.1-19-8.1-29.8h28.9c0,8.9,3,16.4,9,22.6c6,6.2,13.2,9.3,21.7,9.3c8.5,0,15.7-2.8,21.7-8.5c6-5.7,9-12.5,9-20.4
	c0-7.1-1.7-13.1-5.2-17.9c-3.5-4.8-7.8-8.7-12.9-11.6c-5.1-2.9-12.2-6.4-21.3-10.4c-10.6-4.6-19.2-8.9-25.7-12.9
	c-6.6-4-12.1-9.5-16.8-16.8c-4.6-7.2-6.9-16.4-6.9-27.6c0-9.6,2.6-18.5,7.8-26.6c5.2-8.1,12.2-14.6,21.1-19.4
	c8.9-4.8,18.6-7.2,29.2-7.2h138.9v27.5h-40.8v175h-28.9v-175h-69.1C131.3,317.9,124.4,320.4,118.7,325.4z"/>
<g>
	<path class="st0" d="M479.9,527.1v10.5h-1.7v-29.3h12.9c1.3,0,2.5,0.2,3.7,0.7c1.1,0.5,2.1,1.2,3,2c0.9,0.9,1.5,1.9,2,3
		c0.5,1.1,0.7,2.4,0.7,3.7c0,1.3-0.2,2.5-0.7,3.7c-0.5,1.1-1.2,2.1-2,3c-0.9,0.9-1.9,1.5-3,2c-1.1,0.5-2.4,0.7-3.7,0.7H479.9z
		 M491.1,525.5c1.1,0,2.1-0.2,3-0.6c0.9-0.4,1.8-0.9,2.5-1.7c0.7-0.7,1.3-1.5,1.7-2.5c0.4-0.9,0.6-1.9,0.6-3c0-1.1-0.2-2.1-0.6-3
		c-0.4-0.9-1-1.8-1.7-2.5c-0.7-0.7-1.5-1.3-2.5-1.7c-0.9-0.4-1.9-0.6-3-0.6h-11.2v15.5H491.1z"/>
	<path class="st0" d="M554.1,537.6h-1.8l-3.9-9h-16.1l-3.9,9h-1.8l12.7-29.3h2.1L554.1,537.6z M533,527h14.7l-7.3-16.9L533,527z"/>
	<path class="st0" d="M598.2,508.3c1.3,0,2.5,0.2,3.7,0.7c1.1,0.5,2.1,1.2,3,2c0.9,0.9,1.5,1.9,2,3c0.5,1.1,0.7,2.4,0.7,3.7
		c0,1.2-0.2,2.3-0.6,3.3c-0.4,1-0.9,2-1.6,2.8c-0.7,0.8-1.5,1.5-2.4,2c-0.9,0.6-2,0.9-3.1,1.1l7.3,10.7h-2l-7.1-10.5h-11.1v10.5
		h-1.7v-29.3H598.2z M598.2,525.5c1.1,0,2.1-0.2,3-0.6c0.9-0.4,1.8-0.9,2.5-1.7c0.7-0.7,1.3-1.5,1.7-2.5c0.4-0.9,0.6-1.9,0.6-3
		c0-1.1-0.2-2.1-0.6-3c-0.4-0.9-1-1.8-1.7-2.5c-0.7-0.7-1.5-1.3-2.5-1.7c-0.9-0.4-1.9-0.6-3-0.6h-11.2v15.5H598.2z"/>
	<path class="st0" d="M660.6,508.3v1.7H649v27.7h-1.7V510h-11.6v-1.7H660.6z"/>
	<path class="st0" d="M691.2,530c0,0.9,0.3,1.8,0.8,2.6c0.5,0.8,1.2,1.5,2.1,2.1c0.9,0.6,1.9,1.1,3.1,1.4c1.2,0.3,2.4,0.5,3.8,0.5
		c1.3,0,2.6-0.2,3.8-0.5c1.2-0.3,2.2-0.8,3.1-1.3c0.9-0.6,1.6-1.3,2.1-2.1c0.5-0.8,0.8-1.7,0.8-2.7c0-1-0.3-1.9-0.8-2.6
		c-0.5-0.7-1.2-1.4-2.1-1.9c-0.9-0.5-1.9-1-3.1-1.3c-1.2-0.3-2.4-0.6-3.8-0.8c-1.5-0.2-2.8-0.5-4.1-0.9c-1.3-0.4-2.4-0.9-3.3-1.5
		c-1-0.6-1.7-1.4-2.3-2.3c-0.6-0.9-0.8-1.9-0.8-3.1c0-1.2,0.3-2.3,0.8-3.2c0.5-1,1.3-1.8,2.2-2.5c0.9-0.7,2.1-1.2,3.3-1.6
		c1.3-0.4,2.6-0.6,4.1-0.6c1.5,0,2.8,0.2,4.1,0.6c1.3,0.4,2.4,1,3.3,1.7c0.9,0.7,1.7,1.5,2.2,2.5c0.6,1,0.8,2,0.8,3.1h-1.7
		c0-0.9-0.2-1.7-0.7-2.4c-0.5-0.8-1.1-1.4-1.9-2s-1.7-1-2.8-1.3c-1.1-0.3-2.2-0.5-3.5-0.5c-1.2,0-2.4,0.1-3.5,0.4
		c-1.1,0.3-2,0.7-2.8,1.2c-0.8,0.5-1.4,1.2-1.9,2c-0.5,0.8-0.7,1.6-0.7,2.6c0,0.9,0.2,1.7,0.7,2.4c0.5,0.7,1.1,1.3,1.9,1.8
		c0.8,0.5,1.8,0.9,2.8,1.2c1.1,0.3,2.2,0.6,3.4,0.7c1.6,0.2,3,0.6,4.4,1c1.4,0.4,2.6,1,3.6,1.6c1,0.7,1.8,1.5,2.4,2.4
		c0.6,0.9,0.9,2,0.9,3.3c0,1.2-0.3,2.4-0.9,3.4c-0.6,1-1.4,1.9-2.4,2.6c-1,0.7-2.2,1.3-3.6,1.7c-1.4,0.4-2.8,0.6-4.4,0.6
		s-3-0.2-4.4-0.7c-1.4-0.4-2.6-1-3.6-1.8c-1-0.7-1.8-1.6-2.4-2.6c-0.6-1-0.9-2.1-0.9-3.2H691.2z"/>
</g>
<path class="st1" d="M492.2,138.5c-9.5-16.2-22.4-29.1-38.6-38.6c-16.2-9.5-33.8-14.3-52.9-14.3c-19.3,0-37,4.8-53.2,14.3
	c-16.2,9.5-29.1,22.4-38.6,38.6c-9.5,16.2-14.3,33.8-14.3,52.9c0,19.1,4.8,36.7,14.3,52.9c9.5,16.2,22.5,29.1,38.8,38.6
	c16.3,9.5,34,14.3,53.1,14.3c19.1,0,36.7-4.8,52.9-14.3c16.2-9.5,29.1-22.4,38.6-38.6c9.5-16.2,14.3-33.8,14.3-52.9
	C506.5,172.3,501.7,154.7,492.2,138.5z"/>
<g>
	<path class="st2" d="M425.3,150.2c1.1,1,3.3,0.8,4.6-0.9c-1.9-0.8-3.5-1.4-5.3-2.1C424.3,148.3,424.5,149.5,425.3,150.2z"/>
	<path class="st2" d="M448.1,206.8c-0.7-0.5-1.5-0.8-1.8-0.8c-1.7-0.1-3.5,0-5.2,0.1c-3.7,0.3-7.3-0.5-10.8-1.6
		c-0.6-0.2-1.1-0.7-1.4-1.2c-3.7-4.5-5.4-9.8-6.4-15.4c-0.2-0.9-0.4-1.8-0.5-2.7c-0.2,5.1-0.5,10.3,2.2,14.9c0.8,1.5,2,2.7,3.1,4
		c2.6,3.3,3.1,4.6,4.8,5.8c1.4,1.1,2.9,1.7,4.3,2.1c-0.9-1.1-1.8-1.9-2.4-2.4c-1-0.8-1.9-1.5-1.7-2.1c0-0.2,0.2-0.4,0.3-0.5
		c1,0.5,2.4,1.3,3.8,2.6c1,0.9,1.7,1.9,2.2,2.6c0.6,0.7,1.2,1.5,2,2.2c3.7,3.3,4,5.8,4.7,5.6c1-0.2,1.6-3.9,0.7-6.9
		c-0.3-1.1-1-2.7-0.6-3c0.1-0.1,0.3,0,0.4,0c1.3,0.6,3.5,4.7,3.9,5.4C450.5,211.7,450.1,208.2,448.1,206.8z"/>
	<path class="st2" d="M424,212.3c1.5,1.3,3.8,2.9,7,4.2c4.6,1.8,9.3,2.1,9.5,1.5c0.2-0.6-4.2-1.2-8.9-4.7c-4.6-3.3-6.8-7.4-8.6-10.5
		c-2.5-4.4-5.2-9.2-4.8-15.7c0.3-4.6,2-8.2,3.2-10.2c-4.3,1.1-6.6,3.1-7.8,4.7c-7.7,9.8,1,32.6,15.5,44c5.2,4.1,10.4,6.1,13.6,7.2
		c-2.1-1.3-4.4-2.9-6.7-4.9C429.8,222.6,426.1,216.7,424,212.3z"/>
	<path class="st2" d="M409.7,254.6c-5.4-4.1-13.3-11.9-24.3-28c1.7,7.5,4.4,13.1,6.4,16.7c3.2,5.6,8.8,14.6,16.4,19.4
		c2.7,1.7,5.1,3.8,7.3,6.1c2.2,2.3,2.4,3.9,2.5,4.9c0.4,3.4-1.9,6.1-2.6,6.8c0.1,0.1,0.2,0.2,0.3,0.2c2.1-1.3,3.7-3,4.6-5.4
		c1.1-3.1,0.3-6-1.1-8.7C415.5,259.2,409.7,254.6,409.7,254.6z"/>
	<path class="st2" d="M381.6,233.7c-4-5.1-9.6-13.4-15.6-26.9c0.2,2.6,0.7,6.3,1.9,10.6c2.1,7.5,5.3,12.9,7.1,16
		c3.3,5.5,4.6,6.1,9,13.5c2.8,4.8,3.6,6.8,3.9,8.9c0.8,5-0.7,9.2-1.8,11.6c0.9-0.4,1.7-0.8,2.4-1.2c3.1-1.9,4.8-4.6,4.8-8.4
		c0-3.9-1.4-7.4-3.3-10.7C385.2,239,382.7,235.1,381.6,233.7z"/>
	<path class="st2" d="M340.9,169.5c3.7-3.7,7.3-7.4,11.3-11.3c-1,0-1.6,0-2.3,0c-0.4,0-0.9-0.2-1-0.4c-0.1-0.3,0-0.8,0.2-1.1
		c0.4-0.6,0.9-1.1,1.4-1.6c7.8-7,16.5-12.2,26.3-15.6c0.7-0.2,1.3-0.5,2-0.7c0-0.1-0.1-0.3-0.1-0.4c-0.4,0-0.8,0-1.1,0.1
		c-2.4,0.7-4.9,1.3-7.3,2.3c-5.2,2.1-10.3,4.5-15.4,6.8c-0.4,0.2-0.8,0.2-1.1,0.3c-0.1-0.1-0.1-0.3-0.2-0.4
		c10.3-5.9,21.2-10.7,30.6-18.2c-0.6,0.1-1.2,0.2-1.8,0.5c-5.3,2.3-10.5,4.5-15.7,6.9c-3.9,1.8-7.8,3.7-11.5,5.9
		c-6.5,4-10.8,9.8-12.2,17.6C342.3,163.1,341.5,166.2,340.9,169.5C340.8,169.4,340.9,169.5,340.9,169.5z"/>
	<path class="st2" d="M360.8,214.1c-4.7-8-6.9-16.5-4.4-25.8c0.1-0.5,0.1-1,0.2-1.5c-0.1,0-0.2,0-0.4,0c-0.9,3.8-1.5,7-1.9,9.5
		c-1.3,7.3-1.3,10.3-1,13.1c0.1,0.9,0.1,2.3,0.8,3.9c1.2,2.8,2.6,5.5,4.2,8.1c2.3,3.7,4.9,7.3,6.2,11.6c1.2,4.1,1.4,8.1-1.9,11.4
		c-0.1,0.1-0.1,0.4-0.2,0.9c2.3-1.7,3.9-3.5,5-5.8c2.4-5,2-10-0.3-14.8C365.3,221.1,362.9,217.7,360.8,214.1z"/>
	<path class="st2" d="M411.8,235.3c-7.2-5.8-12.3-12.8-13.2-22.4c0-0.5-0.2-0.9-0.4-1.4c-0.1,0-0.2,0.1-0.3,0.1
		c0.1,11.3,5.6,19.7,14,26.6c-0.3,0-0.5,0-0.7-0.1c-0.4-0.2-0.8-0.5-1.2-0.7c-2.7-1.8-5-4.1-6.9-6.8c-0.2-0.3-0.6-0.5-0.9-0.8
		c-0.1,0.1-0.2,0.2-0.3,0.3c0.8,2.5,1.5,5.2,3.4,7.1c2.1,2.2,4.4,4.2,6.8,6c3.5,2.6,7.2,5,9.9,8.5c2.6,3.4,4.1,7,2.3,11.3
		c-0.1,0.1,0,0.4,0.1,0.9c1.6-2.4,2.4-4.7,2.6-7.2c0.4-5.5-1.7-10.1-5.5-13.7C418.5,240.2,415.1,237.9,411.8,235.3z"/>
	<path class="st2" d="M344.8,184.3c2.4-2.2,4.8-4.3,7.3-6.5c4.4-3.9,7.6-8.9,10.6-13.9c0.7-1.1,1.4-2.3,2-3.4
		c-3.9,3.7-7.5,7.8-11.5,11.3c-4,3.5-8.5,6.4-12.7,9.6c2.9-3.8,6.9-6.3,10.8-9.1c-0.3-0.1-0.4-0.2-0.5-0.2c-0.2,0-0.3,0.1-0.5,0.1
		c-4.4,1.8-8.3,4.3-11.3,8c-4.4,5.5-3.7,11.7,0.6,16.8c0.3,0.3,0.8,0.4,1.2,0.6c0.1-0.1,0.2-0.2,0.2-0.4c-0.2-0.4-0.4-0.9-0.7-1.3
		c-1-1.5-1.2-3.1-0.6-4.8C340.7,188.4,342.7,186.3,344.8,184.3z"/>
	<path class="st2" d="M417.3,229.1c-2.1-2.8-3.7-5.5-5-8c1.8,1.5,4.3,3.3,7.4,4.8c3.1,1.5,6,2.4,8.3,2.9c-2.2-1.2-5.4-3.1-8.9-5.7
		c-5.9-4.3-9.3-6.8-11.2-11.1c-2.7-6.3-0.3-12-1.2-12.2c-1.1-0.3-5.8,7.3-4.1,14.9c0.9,4.1,3.3,6.9,7.2,11.4
		c2.2,2.6,4.6,4.9,7.4,7.1c3.9,3.1,9.9,7.4,18.5,11.1C430.8,241.9,423.5,237.3,417.3,229.1z"/>
	<path class="st2" d="M349.4,128.8c4.4,3.9,9.4,5.6,15.3,4.7c4.2-0.7,8-2.3,11.8-4.1c2.9-1.3,5.9-2.7,8.9-3.8
		c3.5-1.3,7.1-1.4,10.8-1.1c0.6,0.1,1.2,0,1.8,0c0-0.1,0-0.3,0-0.4c-0.1-0.1-0.3-0.3-0.4-0.4c-4.5-1.4-9-2.3-13.7-1.5
		c-3.9,0.7-7.4,2.4-11.1,3.9c-3.1,1.3-6.2,2.5-9.5,3.2c-4.5,1-8.8,0-12.9-2c-0.8-0.4-1.7-0.7-2.6-1c-0.1,0.1-0.2,0.3-0.3,0.4
		C348.2,127.6,348.7,128.2,349.4,128.8z"/>
	<path class="st2" d="M398.8,113.6c-3.6-1.4-10.4-2.2-11.8-2.4c2.4,0.4,5.8,1.1,9.7,2.6c2.6,1,3.9,1.5,5.4,2.5
		c5,3.2,4.5,6.2,9.2,9.3c2.6,1.7,3.2,1,6.3,3.1c2.8,1.8,4.7,3.9,5.9,5.4c-0.8-1.7-2-3.8-3.7-5.9c-2.6-3.2-5.4-5.2-7.4-6.4
		c0.5,0.3,1.1,0.7,1.9,1.1c5.1,2.6,7.3,2.4,8.8,4.6c1.1,1.6,0.1,2,1.2,3.6c2,2.8,6.2,3.3,6.9,3.6c0,0,0,0,0,0c0,0-3.9-1.6-4.7-4.3
		c-0.2-0.5-0.3-1.4,0.2-2.7c0.5-0.1,1.5-0.1,2.6,0.4c0.9,0.5,1.3,1.2,1.9,2.2c0.4,0.7,1,1.9,1.4,3.4c0.2-1,0.5-3-0.4-5
		c-0.7-1.5-1.8-2.4-3-3.4c-0.9-0.7-2-1.5-3.7-2.2c-2.5-1.1-3.7-0.9-6.2-1.5c-0.1,0-0.2-0.1-0.3-0.1c-0.8-0.5-2.1-1.4-3.1-2.9
		c-1.7-2.4-1.5-4.7-1.5-5.3c0.2-1.8,1-2.7,0.8-2.8c-0.3-0.2-2.1,0.9-2.7,3.1c-0.1,0.4-0.7,2.8,0.7,5.5c-1.3-0.7-2.5-1.5-3.8-2.3
		c-1.6-1-1.3-1-4.3-3c-3.1-2.1-4.7-3.2-6.1-3.8c-1.9-0.9-5.4-2.1-11-1.2c1.9-0.1,6.4-0.2,11,2.4c3,1.7,5,3.8,6.1,5.3
		c-0.8-0.4-1.9-0.9-3.3-1.5C400.2,114.2,399,113.7,398.8,113.6z"/>
	<path class="st2" d="M348.7,199.4c0-0.6-0.3-1.3-0.5-1.9c-0.1,0-0.3,0-0.4,0c-0.2,3.2-0.5,4.1-0.7,4.1c-0.4,0-1.1-3.8-0.6-7.5
		c0.7-4.9,3.6-8.4,5.5-10.3c-0.5,0-0.6-0.1-0.7-0.1c-0.1,0.1-0.3,0.2-0.4,0.3c-3.7,2.9-5.5,6.8-6.4,11.4c-0.9,4.8-0.4,9.6,0.9,14.2
		c1.2,4.3,3.1,8.2,5.7,11.7c0.2,0.3,0.7,0.5,1.1,0.7c0.1-0.4,0.5-0.8,0.4-1.2c-0.1-1.3-0.3-2.6-0.6-3.9
		C350.8,211.1,349.1,205.3,348.7,199.4z"/>
	<path class="st2" d="M366.2,123.5c1.9-0.9,3.8-1.8,5.7-2.5c6.4-2.3,13-2.9,19.7-2c6.2,0.8,11.7,2.9,16.2,7.5
		c0.5,0.5,1.1,0.8,1.7,1.3c0.1-0.1,0.2-0.2,0.4-0.3c-0.2-0.3-0.4-0.7-0.6-1c-2.7-3.8-6.5-6.1-10.8-7.7c-6.9-2.6-13.9-3-21.1-1.5
		c-4.5,1-8.6,2.9-12.1,5.9c-0.2,0.2-0.3,0.4-0.4,0.6C365.4,123.8,365.8,123.7,366.2,123.5z"/>
	<path class="st2" d="M434.2,126c3.3,4.3,5.9,8.8,4.5,14.6c0.1,0,0.3,0.1,0.4,0.1c0.3-1,0.7-1.9,0.9-2.9c0.8-4-0.6-7.5-2.7-10.7
		c-2.7-4.1-6.4-7-10.3-9.8c-0.1,0-0.2,0-0.5,0c0.4,0.5,0.7,0.9,1,1.3C430,121.1,432.2,123.4,434.2,126z"/>
	<path class="st2" d="M442.1,146.1c-2.7-2-7.1-4.8-13.2-6.5c-6.6-1.9-12.2-1.7-15.7-1.3c0.7,0.6,1.5,1.3,2.2,1.9
		c0.5,0.4,0.8,0.9,0.1,1.2c-2.9,1.3-5.8,2.6-9.1,4c0.4-1,0.7-1.9,1.1-2.6c0.4-0.8,0.3-1.3-0.3-1.8c-2.9-2.5-6.2-4.3-10-4.9
		c-2.9-0.5-5.8-0.6-8.7,0c-1,0.2-1.1,0.7-1.2,1.5c-0.1,4.1,1.1,7.6,4,10.5c1.4,1.4,3,2.6,4.5,3.9c0.5,0.5,1,1.2,1.3,1.8
		c0.4,0.8,0.6,1.6,1,2.7c1.3-4.5,1.2-5.8,0.7-6c-0.3-0.2-0.7,0.2-1.4,0c-0.8-0.2-1.1-0.8-1.8-1.4c-0.8-0.6-1.7-1.3-2.5-1.9
		c-0.4-0.3-2.2-2.1-2.6-4.6c-0.2-1.4,0.3-1.8-0.1-3c-0.5-1.4-1.4-2-1.2-2.4c0.2-0.4,1.4-0.2,2.4,0c0,0,6.8,1.3,10.3,3.2
		c0.8,0.4,0.9,0.9,0.4,1.7c-1,1.6-1.4,3.3-1.4,5.2c1.3,0.2,2.5,0.3,3.8,0.5c1.5,0.3,1.6,0.5,0.8,1.8c-2.2,3.3-2.8,7.1-2.4,11.2
		c1.1-1.3,1.9-2.5,3-3.4c1.5-1.2,3.1-2.1,4.7-3.1c0.3-0.2,0.7,0,1.1,0c-0.1,0.3-0.2,0.7-0.4,1c-2.2,2.4-3.6,5.3-4.3,8.9
		c2.4-2.5,4.7-4.8,8.3-4.8c-4.3,3.6-6.1,5.8-5.6,6.8c0.4,0.7,2,0.7,4.8,0c-1.2,0.9-2.4,2-3.6,3.6c-3.8,5.1-3.6,10.9-3.4,13
		c2.2-2,4.1-3.7,6-5.4c3-2.7,6.5-4.6,10.4-5.7c0.2-0.1,0.4-0.1,0.6-0.1c0.3,0,0.7,0.1,1,0.1c-0.1,0.3-0.1,0.7-0.2,1
		c-0.4,1-0.8,2-1.2,3c1.6-1.1,3.2-2.2,4.7-3.3c0.2-0.1,0.4-0.5,0.4-0.8c0-1,0-2.1,0-3.4c-5.3,0.7-10,2.6-14.7,4.8
		c-0.1-0.1-0.2-0.3-0.3-0.4c0.3-0.3,0.6-0.7,0.9-1c4-3,8.5-4.9,13.4-5.6c1.2-0.2,1.4-0.8,1.5-1.9c-4.7,0.4-9,1.8-13.4,3.3
		c-0.1-0.1-0.1-0.2-0.2-0.4c0.4-0.3,0.7-0.7,1.1-1c4-2.3,8.3-3.7,12.8-4.3c0.4-0.1,1-0.2,1.3-0.5c1.6-1.8,3.7-2.7,5.9-2.8
		c2.2-0.1,4.5,0.1,6.7,0.1c0.4,0,1,0,1.2-0.2c0.6-1,1.5-0.9,2.4-0.9c2.9,0,5.7,0,8.6,0c-0.2-0.2-0.5-0.5-0.8-0.7
		c-2.2-1.8-4.5-3.5-6.7-5.4c-0.7-0.6-1.3-1.4-1.6-2.3c-0.9-3-2.8-4.8-5.8-5.9c0.1,0.4,0.2,0.9,0.2,1.3
		C442,144.9,442,145.5,442.1,146.1z M432.7,157.7c-0.9-0.6-1.3-1-1.2-1.2c0.1-0.2,0.5-0.2,1.2,0c1-1,2.1-1.9,3.1-2.9
		c-2-0.7-3.7-2-6-1.8c-4.5,0.3-8.8,1.4-12.9,3.3c-0.7,0.3-1.4,0.6-2,0.9c-0.1-0.1-0.2-0.3-0.2-0.4c1.4-2.9,4.2-4.3,7.1-6.3
		c-1.8-1.5-3.4-2.9-5.2-4.5c0.8-0.1,1.3-0.2,1.8-0.2c4.3,0.2,8.3,1.3,12.1,3.2c0.3,0.2,0.9,0.4,1.1,0.3c0.7-0.6,1.2-0.2,1.6,0.2
		c2,1.8,4,3.7,6,5.6c0.2,0.2,0.2,0.4,0.3,0.5C437.1,155.5,434.9,156.6,432.7,157.7z"/>
	<path class="st2" d="M460.7,167.1c1.2-0.1,1.2-0.8,1-1.7c-0.6-2.3-1.6-2.6-3.3-0.9c-1,1-1.9,2-2.8,3.1c-0.6,0.8-1,0.8-1.7,0
		c-2.2-2.7-4.6-5-8-6c-2.9-0.9-5.8-0.8-8.7,0.3c2.9,0.8,5.7,1.4,8.1,3.2c0,0.1-0.1,0.3-0.1,0.4c-0.4-0.1-0.8-0.1-1.3-0.2
		c-2.8-0.5-5.7-1-8.5-1.4c-1.4-0.2-1.8,0.3-2,1.9c3.5,0.2,6.9,0.8,10.2,2.2c0.2,0.1,0.4,0.2,0.6,0.2c-0.1,0.2-0.2,0.3-0.3,0.5
		c-0.4,0-0.8,0-1.2-0.1c-2.7-0.2-5.5-0.5-8.2-0.7c-1.1-0.1-1.3,0.4-1,1.3c0.2,0.4,0.4,0.8,0.5,1.2c0.4,1,1.1,1.4,2.2,1.1
		c1.7-0.4,3.5-0.5,5.2-0.7c0.6-0.1,1.3,0.1,1.9,0.2c0,0.1,0,0.3,0,0.4c-2.2,0.5-4.3,1.1-6.5,1.6c0,0.2,0,0.4,0,0.5
		c1.1,0.3,2.1,0.8,3.2,0.9c4.2,0.3,8.2-0.3,12.2-1.7c1.1-0.4,1.8-0.3,2.6,0.6c1.4,1.5,2.2,1.5,3.6,0.4c1-0.7,1-0.8,0.6-2
		c1.9-0.6,2-0.7,0.8-2.1c0.5-0.3,0.9-0.5,1.4-0.8c-0.4-0.4-0.7-0.8-1.2-1.3C460.4,167.3,460.5,167.1,460.7,167.1z"/>
	<path class="st2" d="M434.3,185.4c-0.4-1.7-1.1-3.2-2.4-4.4c-1.3-1.1-2.7-1-4.3,0.3c2.1,2.3,2.9,5.1,3.3,8.2c0.2,1.2,1,2.4,1.7,3.5
		c0.5,0.7,1.1,0.7,1.6-0.1c1-1.6,2.1-3.2,3.1-4.8c0.4,0.3,0.7,0.5,1,0.7c0.6-2.4-1.2-6.1-3.2-6.5c0.2,1.1,0.4,2.1,0.4,3.1
		c0,0.9,0.7,2-0.6,3C434.7,187.2,434.5,186.3,434.3,185.4z"/>
	<path class="st2" d="M440.7,178c-0.2,0-0.5,0.5-0.5,0.7c0.2,2,0.5,3.5,0.8,6.3c0.1,0.6,0.2,1.6,0,2.9c0.8-1.8,1.6-3.8,2.3-5.9
		c0.5-1.4,0.8-2.7,1.1-4C443.2,177.9,441.9,177.9,440.7,178z"/>
	<path class="st2" d="M437,199.8c0.2,0,0.6-0.6,0.6-0.9c0.1-1.5,0-3,0-4.8c-1.3,2.1-2.4,3.8-3.6,5.8C435,199.8,436,199.9,437,199.8z
		"/>
	<path class="st2" d="M452.6,181.9c-0.2,1.2-0.4,2.4-0.6,3.6c1.3-2.5,2.6-5,3.9-7.6c-1.1-0.1-2-0.2-3-0.4
		C452.8,179,452.7,180.5,452.6,181.9z"/>
	<path class="st2" d="M445.9,199.9c1.6-1,2.3-3.5,1.2-6c-1.3,2.1-2.7,4.2-4,6.3C443.7,200.4,444.9,200.6,445.9,199.9z"/>
	<path class="st2" d="M359.7,159.2c0.5-0.6,2.7-3.7,6.6-6.8c3.3-2.7,7.8-5.4,8.5-4.6c0.7,0.8-3.1,4.4-6.4,10.3
		c-3.2,5.7-4.7,11.2-5.4,15.3c-0.5,2.4-1,6.1-0.5,10.5c0.3,2.7,0.9,3.9,1.1,5.7c0.5,3.2,0.1,8-4.1,14.7c1.7-1.3,7.6-6,8.7-13.9
		c0.3-2.3,0.2-4.4-0.1-6.1c-0.5-1.9-0.8-4.1-0.9-6.5c-0.4-10.1,4.1-17.9,6.6-21.7c3.5-5.3,6.9-10.7,10.4-16
		c-1.5,0.7-3.6,1.7-6.2,2.9c-10.3,4.9-12.5,6.3-14.1,7.6c-3,2.2-4.4,3.9-7,6.7c-11.3,11.9-20.2,17.4-19.8,18
		C337.5,176,352.2,169.2,359.7,159.2z"/>
	<path class="st2" d="M366.5,203.1c1.8-0.6,4.9-1.9,7.8-4.6c1.3-1.2,6.4-6,6.2-12.2c-0.1-4.2-2.6-4.2-3.1-8.4
		c-0.9-6.3,4.4-9.3,6.7-17.3c0.9-3.2,1.6-8.1,0-14.9c-1.4,4.7-3.1,9.5-5,14.3c-0.1,0.2-0.2,0.4-0.3,0.7c-5.2,7-6.2,12.7-6.1,16.7
		c0.2,6,3,9,2,14.3C373.8,197,369.8,200.7,366.5,203.1z"/>
	<path class="st2" d="M395.6,190.4c0.2-4.3-3.4-5.9-6-11.2c-2.1-4.4-3.7-11.7,0.2-23.4c-7.5,11-7.8,18.5-6.6,23.4
		c1.3,5.7,4.5,7.3,4.2,12.3c-0.6,7.5-8.1,9.1-9.9,16.6c-0.8,3.5-0.6,8.9,5.2,17c-2.4-10-0.7-16.2,1.5-20.1
		C388.3,197.7,395.3,196.3,395.6,190.4z"/>
	<path class="st2" d="M407.1,189.7c0-0.1-0.2-0.4-0.4-1c-5.3-12-5.9-13.2-6.5-15.2c-0.8-2.7-1.3-6.8,0.1-12.3
		c-0.4,1.2-0.8,2.4-1.2,3.6c-2,3.8-4,9.3-2.7,15c1.1,4.7,3.3,5.1,3.8,8.7c1.3,8.3-9.3,12.5-11.3,21.6c-1,4.5-0.3,11.8,9.5,22.8
		c-6.3-11.8-5.7-19-3.7-23.4C398.2,201.2,409,195.9,407.1,189.7z"/>
	<path class="st2" d="M396.4,129.9c2.7,0.4,4.8,1.3,7.2,2.4c4.7,2.1,6.7,4,10.9,4.4c1.1,0.1,2,0,2.6,0c-1.8-0.4-4.5-1.2-7.4-2.9
		c-0.4-0.3-1-0.6-2.1-1.4c-3.9-2.6-4.2-3.1-5.2-3.7c-4.3-2.6-9.3-1.3-9.7-1.2c-3,0.8-5,2.5-6,3.6C389,130.3,392.4,129.3,396.4,129.9
		z"/>
</g>
</svg>
